<svg width="433" height="94" viewBox="0 0 433 94" fill="none" xmlns="http://www.w3.org/2000/svg">
<g clip-path="url(#clip0_2248_33)">
<rect width="433" height="100"/>
<path d="M0.0151367 45.3838C1.3129 8.90667 42.6167 -12.5114 73.1541 7.93335C103.038 27.9389 100.212 72.6418 68.3973 88.809V22.1738C68.3973 21.6048 67.369 20.5666 66.6553 20.4268C58.3845 18.7996 54.5561 30.774 53.1685 36.8934C50.7377 47.595 50.4382 58.9005 50.4282 69.8416H62.9067L62.8369 91.2348C55.0752 94.1747 46.5899 94.3694 38.4489 93.3012V55.3666C38.4489 55.2069 40.5702 54.7027 41.4138 54.0838C44.2689 51.9824 46.9343 47.7347 46.9343 44.136V20.6764C46.9343 19.6581 43.4403 19.6581 43.4403 20.6764V39.6437C43.4403 41.1012 39.9463 41.0712 39.9463 39.1446V19.9277C38.8732 19.9876 36.9315 19.4984 36.5222 20.7463L36.3525 39.5389C35.6886 41.765 32.9584 40.4773 32.9584 39.1446V19.9277C31.8852 19.9876 29.9435 19.4984 29.5343 20.7463L29.3645 39.5389C28.7007 41.765 25.9704 40.4773 25.9704 39.1446V19.9277H22.9756V46.1325C22.9756 48.8878 26.6442 53.1903 29.0201 54.563C29.7139 54.9673 31.4609 55.2368 31.4609 55.3666V91.3047C13.991 84.7509 2.65559 70.5055 0.514276 51.8726C1.90188 52.7261 6.54388 51.8177 6.51893 50.1406C6.51394 49.8112 4.45748 45.3439 4.01824 45.1242C2.75541 44.4953 1.28295 45.0444 0.0151367 45.3788V45.3838ZM7.49724 39.8933C6.09466 38.905 4.48244 41.8848 6.25937 42.384C8.25593 42.943 8.07125 40.2976 7.49724 39.8933ZM10.4921 49.3719C10.2126 48.169 9.04956 43.1127 8.19104 42.933C8.06626 42.9081 6.55387 43.3174 6.49896 43.3872C6.3043 43.6318 8.31084 49.1224 8.57039 49.302C8.95972 49.5716 9.93304 49.2921 10.4921 49.3719Z" fill="#FF5023"/>
<path d="M0.514422 51.8726C0.249878 49.5616 -0.0745628 47.9095 0.0152824 45.3838C1.27811 45.0444 2.75057 44.4953 4.01838 45.1292C4.45763 45.3489 6.51408 49.8112 6.51907 50.1456C6.54902 51.8227 1.90203 52.7311 0.514422 51.8776V51.8726Z" fill="#FF5023"/>
<path d="M10.492 49.3719C9.93295 49.2921 8.95963 49.5716 8.5703 49.302C8.31075 49.1224 6.30421 43.6318 6.49887 43.3872C6.55378 43.3174 8.07116 42.9081 8.19095 42.933C9.04448 43.1077 10.2125 48.164 10.492 49.3719Z" fill="#FF5023"/>
<path d="M7.49721 39.8933C8.06623 40.2976 8.25091 42.938 6.25935 42.384C4.48241 41.8898 6.09962 38.905 7.49721 39.8933Z" fill="#FF5023"/>
<path d="M131.92 21C132.827 21 133.28 23.3733 133.28 28.12C133.28 32.8133 132.827 35.16 131.92 35.16H117.28V44.28H127.04C127.947 44.28 128.4 46.36 128.4 50.52C128.4 54.6267 127.973 56.68 127.12 56.68H117.28V75.96C117.28 76.7067 116.267 77.1867 114.24 77.4C112.267 77.6667 110.613 77.8 109.28 77.8L105.52 77.64C102.907 77.32 101.6 76.7867 101.6 76.04V23.08C101.6 22.2267 101.76 21.6667 102.08 21.4C102.453 21.1333 102.987 21 103.68 21H131.92ZM139.962 72.28C136.655 68.6 135.002 63.5067 135.002 57C135.002 50.4933 136.655 45.4 139.962 41.72C143.322 38.04 147.829 36.2 153.482 36.2C159.135 36.2 163.615 38.04 166.922 41.72C170.229 45.4 171.882 50.4933 171.882 57C171.882 63.5067 170.229 68.6 166.922 72.28C163.615 75.96 159.135 77.8 153.482 77.8C147.829 77.8 143.322 75.96 139.962 72.28ZM153.482 49.56C150.495 49.56 149.002 52.0133 149.002 56.92C149.002 61.8267 150.495 64.28 153.482 64.28C156.522 64.28 158.042 61.8267 158.042 56.92C158.042 52.0133 156.522 49.56 153.482 49.56ZM180.978 72.28C177.671 68.6 176.018 63.5067 176.018 57C176.018 50.4933 177.671 45.4 180.978 41.72C184.338 38.04 188.844 36.2 194.497 36.2C200.151 36.2 204.631 38.04 207.938 41.72C211.244 45.4 212.898 50.4933 212.898 57C212.898 63.5067 211.244 68.6 207.938 72.28C204.631 75.96 200.151 77.8 194.497 77.8C188.844 77.8 184.338 75.96 180.978 72.28ZM194.497 49.56C191.511 49.56 190.018 52.0133 190.018 56.92C190.018 61.8267 191.511 64.28 194.497 64.28C197.538 64.28 199.058 61.8267 199.058 56.92C199.058 52.0133 197.538 49.56 194.497 49.56ZM238.793 21.48C238.793 20.68 240.9 20.28 245.113 20.28C246.553 20.28 248.206 20.3867 250.073 20.6C251.993 20.76 252.953 21 252.953 21.32V63.48H255.753C257.086 63.48 257.966 64.68 258.393 67.08C258.5 67.7733 258.553 68.7333 258.553 69.96C258.553 71.1333 258.18 72.5733 257.433 74.28C256.366 76.6267 254.66 77.8 252.313 77.8C250.553 77.8 248.98 77.4533 247.593 76.76C246.26 76.0667 245.353 75.3467 244.873 74.6L244.153 73.56C241.22 76.3867 237.54 77.8 233.113 77.8C228.686 77.8 224.9 75.96 221.753 72.28C218.606 68.6 217.033 63.48 217.033 56.92C217.033 50.3067 218.686 45.2133 221.993 41.64C225.3 38.0133 229.433 36.2 234.393 36.2C235.833 36.2 237.3 36.36 238.793 36.68V21.48ZM236.153 49C233.166 49 231.673 51.6933 231.673 57.08C231.673 59.8 232.1 61.7733 232.953 63C233.806 64.1733 234.74 64.76 235.753 64.76C236.82 64.76 237.833 64.3067 238.793 63.4V49.8C237.886 49.2667 237.006 49 236.153 49ZM263.388 72.28V22.52C263.388 21.4 266.081 20.84 271.468 20.84C276.908 20.84 279.628 21.4 279.628 22.52V61.72H291.948C292.908 61.72 293.574 62.9733 293.948 65.48C294.108 66.7067 294.188 67.96 294.188 69.24C294.188 70.52 294.108 71.8267 293.948 73.16C293.521 75.72 292.828 77 291.868 77H267.228C266.054 77 265.121 76.52 264.428 75.56C263.734 74.6 263.388 73.5067 263.388 72.28ZM301.993 72.28C298.686 68.6 297.033 63.5067 297.033 57C297.033 50.4933 298.686 45.4 301.993 41.72C305.353 38.04 309.86 36.2 315.513 36.2C321.166 36.2 325.646 38.04 328.953 41.72C332.26 45.4 333.913 50.4933 333.913 57C333.913 63.5067 332.26 68.6 328.953 72.28C325.646 75.96 321.166 77.8 315.513 77.8C309.86 77.8 305.353 75.96 301.993 72.28ZM315.513 49.56C312.526 49.56 311.033 52.0133 311.033 56.92C311.033 61.8267 312.526 64.28 315.513 64.28C318.553 64.28 320.073 61.8267 320.073 56.92C320.073 52.0133 318.553 49.56 315.513 49.56ZM354.289 77C349.115 77 345.115 75.3467 342.289 72.04C339.462 68.68 338.049 63.7467 338.049 57.24C338.049 50.68 339.889 45.56 343.569 41.88C347.302 38.1467 352.235 36.28 358.369 36.28C364.555 36.28 369.649 37.64 373.649 40.36V80.2C373.649 84.1467 372.049 87.16 368.849 89.24C365.649 91.3733 361.542 92.44 356.529 92.44C351.515 92.44 347.035 91.8 343.089 90.52C342.555 89.24 342.289 88.0933 342.289 87.08C342.289 83.6667 342.849 81.16 343.969 79.56C347.542 81.1067 351.355 81.88 355.409 81.88C358.342 81.88 359.809 80.84 359.809 78.76V76.36C357.515 76.7867 355.675 77 354.289 77ZM357.969 49.32C354.395 49.32 352.609 52.0133 352.609 57.4C352.609 60.76 353.302 62.9467 354.689 63.96C355.595 64.6533 356.502 65 357.409 65C358.315 65 359.115 64.92 359.809 64.76V49.56C359.169 49.4 358.555 49.32 357.969 49.32ZM395.459 76.52C395.459 76.9467 393.005 77.16 388.099 77.16C383.245 77.16 380.819 76.9733 380.819 76.6V37.32C380.819 36.9467 383.245 36.76 388.099 36.76C393.005 36.76 395.459 36.92 395.459 37.24V76.52ZM395.459 32.52C395.459 32.8933 393.005 33.08 388.099 33.08C383.245 33.08 380.819 32.92 380.819 32.6V21.08C380.819 20.5467 383.245 20.28 388.099 20.28C393.005 20.28 395.459 20.44 395.459 20.76V32.52ZM415.814 57.16C415.814 62.3867 417.787 65 421.734 65C424.294 65 426.427 64.4933 428.134 63.48C428.934 63.48 429.574 64.8667 430.054 67.64C430.587 70.36 430.854 72.2267 430.854 73.24C430.854 74.2 430.72 74.84 430.454 75.16C427.627 76.92 423.76 77.8 418.854 77.8C413.947 77.8 409.76 75.9867 406.294 72.36C402.88 68.68 401.174 63.6933 401.174 57.4C401.174 51.0533 402.854 45.9333 406.214 42.04C409.627 38.1467 414.134 36.2 419.734 36.2C425.387 36.2 429.307 37.56 431.494 40.28C431.974 40.8667 432.214 41.7467 432.214 42.92C432.214 44.04 432 45.4267 431.574 47.08C430.614 50.4933 429.36 52.4667 427.814 53C427.6 53.0533 427.28 53.08 426.854 53.08C426.48 53.08 426 52.76 425.414 52.12C423.334 50.04 421.654 49 420.374 49C419.147 49 418.08 49.64 417.174 50.92C416.267 52.2 415.814 54.28 415.814 57.16Z" fill="#FF5023"/>
</g>
<defs>
<clipPath id="clip0_2248_33">
<rect width="433" height="94" />
</clipPath>
</defs>
</svg>
